<?xml version="1.0" standalone="no"?>
<!DOCTYPE svg PUBLIC "-//W3C//DTD SVG 20010904//EN"
 "http://www.w3.org/TR/2001/REC-SVG-20010904/DTD/svg10.dtd">
<svg version="1.0" xmlns="http://www.w3.org/2000/svg"
 width="260.000000pt" height="260.000000pt" viewBox="0 0 260.000000 260.000000"
 preserveAspectRatio="xMidYMid meet">
<metadata>
Created by potrace 1.11, written by Peter Selinger 2001-2013
</metadata>
<g transform="translate(0.000000,260.000000) scale(0.100000,-0.100000)"
fill="#000000" stroke="none">
<path d="M1146 2308 c-32 -112 -67 -230 -77 -263 -10 -33 -62 -208 -115 -390
-52 -181 -152 -523 -221 -760 -69 -236 -126 -437 -125 -447 1 -17 63 -105 88
-124 11 -9 182 -12 612 -13 l597 -1 47 64 47 64 -68 234 c-228 772 -292 1004
-287 1031 4 21 1 33 -14 45 -12 11 -37 81 -74 207 -30 105 -75 262 -101 350
-44 150 -52 179 -54 198 -1 4 -45 7 -99 7 l-98 0 -58 -202z"/>
<path d="M1672 2093 c-30 -81 -39 -121 -30 -136 19 -35 55 -12 64 40 3 15 12
41 19 57 11 20 12 34 4 47 -15 28 -45 24 -57 -8z"/>
<path d="M1765 1975 c-102 -116 -122 -157 -80 -163 14 -2 37 18 80 69 33 39
79 91 103 116 48 51 57 93 20 93 -16 0 -52 -34 -123 -115z"/>
<path d="M1987 1919 c-9 -6 -17 -7 -17 -4 0 3 -9 1 -21 -5 -11 -7 -33 -13 -47
-15 -72 -9 -109 -42 -80 -72 13 -13 19 -13 51 0 19 9 37 13 40 11 2 -3 17 1
33 7 16 7 33 11 38 10 15 -3 56 29 56 44 0 21 -32 35 -53 24z"/>
<path d="M1859 1779 c-7 -4 -33 -6 -60 -4 -58 4 -90 -14 -73 -42 12 -19 18
-19 211 -10 69 3 94 17 77 44 -8 13 -26 17 -77 18 -37 1 -72 -2 -78 -6z"/>
</g>
</svg>
